<svg width="29" height="32" viewBox="0 0 29 32" fill="none" xmlns="http://www.w3.org/2000/svg">
<path fill-rule="evenodd" clip-rule="evenodd" d="M17.5814 9.04301e-08C18.2356 0.000169672 18.8732 0.206185 19.4039 0.588863C19.9346 0.971542 20.3314 1.51148 20.5381 2.13221L21.3844 4.6759H26.4967C26.9101 4.6759 27.3066 4.84011 27.5989 5.13241C27.8912 5.42471 28.0554 5.82115 28.0554 6.23453C28.0554 6.6479 27.8912 7.04435 27.5989 7.33665C27.3066 7.62895 26.9101 7.79316 26.4967 7.79316L26.4921 7.90382L25.1407 26.8303C25.0564 28.0096 24.5285 29.1131 23.6632 29.9188C22.7979 30.7245 21.6596 31.1725 20.4773 31.1726H7.57807C6.39578 31.1725 5.25743 30.7245 4.39217 29.9188C3.52691 29.1131 2.99898 28.0096 2.91464 26.8303L1.56331 7.90227L1.55863 7.79316C1.14526 7.79316 0.748813 7.62895 0.456513 7.33665C0.164213 7.04435 0 6.6479 0 6.23453C0 5.82115 0.164213 5.42471 0.456513 5.13241C0.748813 4.84011 1.14526 4.6759 1.55863 4.6759H6.67095L7.51728 2.13221C7.72411 1.51123 8.12115 0.971109 8.65212 0.588407C9.18309 0.205706 9.82105 -0.000157517 10.4756 9.04301e-08H17.5814ZM9.35179 12.4691C8.97003 12.4691 8.60157 12.6093 8.31628 12.8629C8.031 13.1166 7.84874 13.4662 7.80407 13.8453L7.79316 14.0277V23.3795C7.7936 23.7767 7.94572 24.1588 8.21843 24.4477C8.49114 24.7366 8.86387 24.9104 9.26045 24.9337C9.65703 24.957 10.0475 24.828 10.3522 24.573C10.6568 24.318 10.8526 23.9563 10.8995 23.5618L10.9104 23.3795V14.0277C10.9104 13.6143 10.7462 13.2179 10.4539 12.9256C10.1616 12.6333 9.76517 12.4691 9.35179 12.4691ZM18.7036 12.4691C18.2902 12.4691 17.8938 12.6333 17.6015 12.9256C17.3092 13.2179 17.145 13.6143 17.145 14.0277V23.3795C17.145 23.7929 17.3092 24.1893 17.6015 24.4816C17.8938 24.7739 18.2902 24.9381 18.7036 24.9381C19.117 24.9381 19.5134 24.7739 19.8057 24.4816C20.098 24.1893 20.2622 23.7929 20.2622 23.3795V14.0277C20.2622 13.6143 20.098 13.2179 19.8057 12.9256C19.5134 12.6333 19.117 12.4691 18.7036 12.4691ZM17.5814 3.11726H10.474L9.95498 4.6759H18.1004L17.5814 3.11726Z" fill="#F24822"/>
</svg>
