<svg width="32" height="32" viewBox="0 0 32 32" fill="none" xmlns="http://www.w3.org/2000/svg">
<path d="M5.20937 0C3.82776 0 2.50274 0.547837 1.52579 1.52299C0.548843 2.49815 0 3.82075 0 5.19983V23.5992C0 24.9783 0.548843 26.3009 1.52579 27.2761C2.50274 28.2512 3.82776 28.799 5.20937 28.799H13.0875L13.6582 26.5223C13.9178 25.4856 14.4548 24.5384 15.213 23.7832L17.3993 21.5993H13.2238C12.905 21.5993 12.5992 21.4729 12.3737 21.2478C12.1483 21.0228 12.0216 20.7176 12.0216 20.3993C12.0216 20.0811 12.1483 19.7759 12.3737 19.5508C12.5992 19.3258 12.905 19.1994 13.2238 19.1994H19.8036L24.6732 14.3387C25.2161 13.796 25.8716 13.3786 26.5936 13.116C27.3156 12.8534 28.0864 12.7519 28.8519 12.8188V5.19983C28.8519 3.82075 28.3031 2.49815 27.3261 1.52299C26.3492 0.547837 25.0241 0 23.6425 0H5.20937ZM9.21658 8.39972C9.21658 8.82405 9.0477 9.23101 8.7471 9.53106C8.4465 9.8311 8.03881 9.99967 7.61369 9.99967C7.18858 9.99967 6.78088 9.8311 6.48029 9.53106C6.17969 9.23101 6.01081 8.82405 6.01081 8.39972C6.01081 7.97539 6.17969 7.56844 6.48029 7.26839C6.78088 6.96834 7.18858 6.79978 7.61369 6.79978C8.03881 6.79978 8.4465 6.96834 8.7471 7.26839C9.0477 7.56844 9.21658 7.97539 9.21658 8.39972ZM12.0216 8.39972C12.0216 8.08147 12.1483 7.77626 12.3737 7.55122C12.5992 7.32619 12.905 7.19976 13.2238 7.19976H22.0396C22.3585 7.19976 22.6642 7.32619 22.8897 7.55122C23.1151 7.77626 23.2418 8.08147 23.2418 8.39972C23.2418 8.71797 23.1151 9.02319 22.8897 9.24822C22.6642 9.47326 22.3585 9.59968 22.0396 9.59968H13.2238C12.905 9.59968 12.5992 9.47326 12.3737 9.24822C12.1483 9.02319 12.0216 8.71797 12.0216 8.39972ZM12.0216 14.3995C12.0216 14.0813 12.1483 13.7761 12.3737 13.551C12.5992 13.326 12.905 13.1996 13.2238 13.1996H22.0396C22.3585 13.1996 22.6642 13.326 22.8897 13.551C23.1151 13.7761 23.2418 14.0813 23.2418 14.3995C23.2418 14.7178 23.1151 15.023 22.8897 15.248C22.6642 15.4731 22.3585 15.5995 22.0396 15.5995H13.2238C12.905 15.5995 12.5992 15.4731 12.3737 15.248C12.1483 15.023 12.0216 14.7178 12.0216 14.3995ZM7.61369 12.7996C8.03881 12.7996 8.4465 12.9681 8.7471 13.2682C9.0477 13.5682 9.21658 13.9752 9.21658 14.3995C9.21658 14.8239 9.0477 15.2308 8.7471 15.5309C8.4465 15.8309 8.03881 15.9995 7.61369 15.9995C7.18858 15.9995 6.78088 15.8309 6.48029 15.5309C6.17969 15.2308 6.01081 14.8239 6.01081 14.3995C6.01081 13.9752 6.17969 13.5682 6.48029 13.2682C6.78088 12.9681 7.18858 12.7996 7.61369 12.7996ZM9.21658 20.3993C9.21658 20.8237 9.0477 21.2306 8.7471 21.5307C8.4465 21.8307 8.03881 21.9993 7.61369 21.9993C7.18858 21.9993 6.78088 21.8307 6.48029 21.5307C6.17969 21.2306 6.01081 20.8237 6.01081 20.3993C6.01081 19.975 6.17969 19.568 6.48029 19.268C6.78088 18.9679 7.18858 18.7994 7.61369 18.7994C8.03881 18.7994 8.4465 18.9679 8.7471 19.268C9.0477 19.568 9.21658 19.975 9.21658 20.3993ZM25.8064 15.4715L16.3446 24.9144C15.7942 25.4655 15.4033 26.1549 15.213 26.9095L14.4788 29.839C14.4058 30.1305 14.4097 30.4359 14.4901 30.7254C14.5705 31.0149 14.7247 31.2787 14.9376 31.4911C15.1505 31.7035 15.4149 31.8571 15.705 31.9372C15.9952 32.0172 16.3011 32.0208 16.593 31.9477L19.5263 31.2166C20.2831 31.0264 20.9743 30.6356 21.5267 30.0854L30.9869 20.6425C31.6475 19.9514 32.011 19.0299 31.9997 18.0748C31.9885 17.1197 31.6034 16.2069 30.9268 15.5315C30.2502 14.8561 29.3357 14.4718 28.3789 14.4605C27.422 14.4493 26.4988 14.8122 25.8064 15.4715Z" fill="#BABABA"/>
</svg>
