<svg width="52" height="52" viewBox="0 0 52 52" fill="none" xmlns="http://www.w3.org/2000/svg">
<circle cx="26" cy="26" r="26" fill="white"/>
<path d="M25.2439 14.455C25.4446 14.2545 25.7167 14.1419 26.0003 14.1419C26.284 14.1419 26.5561 14.2545 26.7568 14.455L39.1599 26.8581C39.2587 26.9603 39.3769 27.0418 39.5075 27.0978C39.6381 27.1538 39.7786 27.1833 39.9207 27.1845C40.0629 27.1856 40.2038 27.1585 40.3354 27.1046C40.4669 27.0507 40.5864 26.9712 40.6868 26.8706C40.7873 26.7701 40.8667 26.6505 40.9205 26.5189C40.9742 26.3873 41.0013 26.2464 41 26.1042C40.9987 25.9621 40.9691 25.8216 40.9129 25.6911C40.8567 25.5605 40.7751 25.4424 40.6728 25.3437L28.2712 12.9406C27.973 12.6424 27.6189 12.4058 27.2293 12.2445C26.8397 12.0831 26.4221 12 26.0003 12C25.5786 12 25.161 12.0831 24.7714 12.2445C24.3818 12.4058 24.0277 12.6424 23.7295 12.9406L11.3264 25.3437C11.2242 25.4425 11.1427 25.5607 11.0867 25.6913C11.0307 25.8219 11.0012 25.9624 11 26.1045C10.9989 26.2467 11.026 26.3876 11.0799 26.5191C11.1338 26.6507 11.2133 26.7702 11.3139 26.8706C11.4144 26.9711 11.534 27.0505 11.6656 27.1043C11.7972 27.158 11.9381 27.1851 12.0803 27.1838C12.2224 27.1825 12.3629 27.1529 12.4934 27.0967C12.624 27.0405 12.7421 26.9589 12.8408 26.8566L25.2439 14.455Z" fill="#3EC300" fill-opacity="0.87"/>
<path d="M26.0004 16.7261L37.6457 28.3713C37.6885 28.4132 37.7318 28.4541 37.7755 28.494V37.3404C37.7755 38.8176 36.5766 40.0165 35.0994 40.0165H30.2823C29.9984 40.0165 29.7261 39.9037 29.5254 39.703C29.3246 39.5022 29.2118 39.23 29.2118 38.946V32.5233C29.2118 32.2394 29.0991 31.9671 28.8983 31.7663C28.6976 31.5656 28.4253 31.4528 28.1414 31.4528H23.8595C23.5756 31.4528 23.3033 31.5656 23.1026 31.7663C22.9018 31.9671 22.7891 32.2394 22.7891 32.5233V38.946C22.7891 39.23 22.6763 39.5022 22.4755 39.703C22.2748 39.9037 22.0025 40.0165 21.7186 40.0165H16.9015C16.1917 40.0165 15.511 39.7346 15.0092 39.2327C14.5073 38.7308 14.2253 38.0501 14.2253 37.3404V28.494L14.3552 28.3713L26.0004 16.7261Z" fill="#3EC300" fill-opacity="0.87"/>
</svg>
