<svg width="28" height="28" viewBox="0 0 28 28" fill="none" xmlns="http://www.w3.org/2000/svg">
<path fill-rule="evenodd" clip-rule="evenodd" d="M25.375 14C25.375 17.0168 24.1766 19.9101 22.0433 22.0433C19.9101 24.1766 17.0168 25.375 14 25.375C10.9832 25.375 8.08989 24.1766 5.95666 22.0433C3.82343 19.9101 2.625 17.0168 2.625 14C2.625 10.9832 3.82343 8.08989 5.95666 5.95666C8.08989 3.82343 10.9832 2.625 14 2.625C17.0168 2.625 19.9101 3.82343 22.0433 5.95666C24.1766 8.08989 25.375 10.9832 25.375 14ZM28 14C28 17.713 26.525 21.274 23.8995 23.8995C21.274 26.525 17.713 28 14 28C10.287 28 6.72601 26.525 4.10051 23.8995C1.475 21.274 0 17.713 0 14C0 10.287 1.475 6.72601 4.10051 4.10051C6.72601 1.475 10.287 0 14 0C17.713 0 21.274 1.475 23.8995 4.10051C26.525 6.72601 28 10.287 28 14ZM10.9375 18.375C10.5894 18.375 10.2556 18.5133 10.0094 18.7594C9.76328 19.0056 9.625 19.3394 9.625 19.6875C9.625 20.0356 9.76328 20.3694 10.0094 20.6156C10.2556 20.8617 10.5894 21 10.9375 21H17.0625C17.4106 21 17.7444 20.8617 17.9906 20.6156C18.2367 20.3694 18.375 20.0356 18.375 19.6875C18.375 19.3394 18.2367 19.0056 17.9906 18.7594C17.7444 18.5133 17.4106 18.375 17.0625 18.375H15.3125V12.25H12.25C11.9019 12.25 11.5681 12.3883 11.3219 12.6344C11.0758 12.8806 10.9375 13.2144 10.9375 13.5625C10.9375 13.9106 11.0758 14.2444 11.3219 14.4906C11.5681 14.7367 11.9019 14.875 12.25 14.875H12.6875V18.375H10.9375ZM14 10.5C14.4641 10.5 14.9092 10.3156 15.2374 9.98744C15.5656 9.65925 15.75 9.21413 15.75 8.75C15.75 8.28587 15.5656 7.84075 15.2374 7.51256C14.9092 7.18437 14.4641 7 14 7C13.5359 7 13.0908 7.18437 12.7626 7.51256C12.4344 7.84075 12.25 8.28587 12.25 8.75C12.25 9.21413 12.4344 9.65925 12.7626 9.98744C13.0908 10.3156 13.5359 10.5 14 10.5Z" fill="#3EC300" fill-opacity="0.87"/>
</svg>
